<svg xmlns="http://www.w3.org/2000/svg" xmlns:xlink="http://www.w3.org/1999/xlink" width="1133" zoomAndPan="magnify" viewBox="0 0 850.5 340.49999" height="453" preserveAspectRatio="xMidYMid meet" version="1.0"><defs><g/><clipPath id="90785478c3"><path d="M 230.148438 7 L 549.664062 7 L 549.664062 178 L 230.148438 178 Z M 230.148438 7 " clip-rule="nonzero"/></clipPath></defs><g fill="#0097b2" fill-opacity="1"><g transform="translate(17.339919, 327.395911)"><g><path d="M 32.84375 -66.34375 C 33.71875 -58.675781 35.578125 -51.394531 38.421875 -44.5 C 41.273438 -37.601562 45.050781 -31.523438 49.75 -26.265625 C 54.457031 -21.015625 60.207031 -16.800781 67 -13.625 C 73.789062 -10.457031 81.675781 -8.875 90.65625 -8.875 C 95.46875 -8.875 100.554688 -9.582031 105.921875 -11 C 111.285156 -12.425781 116.265625 -14.453125 120.859375 -17.078125 C 125.460938 -19.703125 129.566406 -22.929688 133.171875 -26.765625 C 136.785156 -30.597656 139.253906 -34.921875 140.578125 -39.734375 L 143.53125 -39.734375 L 143.53125 -15.109375 C 142.21875 -15.109375 140.738281 -14.671875 139.09375 -13.796875 C 137.445312 -12.921875 135.53125 -11.828125 133.34375 -10.515625 C 128.96875 -7.878906 123.054688 -5.082031 115.609375 -2.125 C 108.160156 0.820312 98.304688 2.296875 86.046875 2.296875 C 76.191406 2.296875 66.832031 0.875 57.96875 -1.96875 C 49.101562 -4.8125 41.273438 -9.1875 34.484375 -15.09375 C 27.691406 -21.007812 22.269531 -28.566406 18.21875 -37.765625 C 14.175781 -46.960938 12.15625 -57.910156 12.15625 -70.609375 C 12.15625 -78.710938 13.519531 -86.925781 16.25 -95.25 C 18.988281 -103.570312 23.148438 -111.070312 28.734375 -117.75 C 34.316406 -124.425781 41.488281 -129.84375 50.25 -134 C 59.007812 -138.164062 69.519531 -140.25 81.78125 -140.25 C 92.726562 -140.25 102.304688 -138.382812 110.515625 -134.65625 C 118.722656 -130.9375 125.507812 -125.789062 130.875 -119.21875 C 136.238281 -112.65625 140.234375 -104.882812 142.859375 -95.90625 C 145.492188 -86.925781 146.8125 -77.070312 146.8125 -66.34375 Z M 80.46875 -129.40625 C 72.800781 -129.40625 66.175781 -127.867188 60.59375 -124.796875 C 55.007812 -121.734375 50.242188 -117.789062 46.296875 -112.96875 C 42.359375 -108.15625 39.296875 -102.679688 37.109375 -96.546875 C 34.921875 -90.421875 33.5 -84.296875 32.84375 -78.171875 L 126.453125 -78.171875 C 126.234375 -84.515625 125.082031 -90.75 123 -96.875 C 120.914062 -103.007812 118.015625 -108.484375 114.296875 -113.296875 C 110.578125 -118.117188 105.867188 -122.007812 100.171875 -124.96875 C 94.484375 -127.925781 87.914062 -129.40625 80.46875 -129.40625 Z M 80.46875 -129.40625 "/></g></g></g><g fill="#0097b2" fill-opacity="1"><g transform="translate(157.251718, 327.395911)"><g><path d="M 135.96875 -11.828125 C 134.21875 -11.828125 132.578125 -11.441406 131.046875 -10.671875 C 129.515625 -9.910156 127.765625 -8.976562 125.796875 -7.875 C 122.066406 -5.6875 117.351562 -3.441406 111.65625 -1.140625 C 105.96875 1.148438 98.523438 2.296875 89.328125 2.296875 C 78.160156 2.296875 67.816406 0.488281 58.296875 -3.125 C 48.773438 -6.738281 40.5625 -11.773438 33.65625 -18.234375 C 26.757812 -24.691406 21.394531 -32.242188 17.5625 -40.890625 C 13.738281 -49.535156 11.828125 -58.894531 11.828125 -68.96875 C 11.828125 -78.382812 13.519531 -87.363281 16.90625 -95.90625 C 20.300781 -104.445312 25.175781 -112 31.53125 -118.5625 C 37.882812 -125.132812 45.710938 -130.390625 55.015625 -134.328125 C 64.316406 -138.273438 74.878906 -140.25 86.703125 -140.25 C 94.804688 -140.25 101.375 -139.316406 106.40625 -137.453125 C 111.445312 -135.585938 115.71875 -133.78125 119.21875 -132.03125 C 121.1875 -130.9375 123.101562 -130.0625 124.96875 -129.40625 C 126.832031 -128.75 128.75 -128.421875 130.71875 -128.421875 L 130.71875 -103.453125 L 127.4375 -103.453125 C 126.34375 -107.617188 124.367188 -111.285156 121.515625 -114.453125 C 118.671875 -117.628906 115.382812 -120.3125 111.65625 -122.5 C 107.9375 -124.695312 103.890625 -126.34375 99.515625 -127.4375 C 95.140625 -128.53125 90.867188 -129.078125 86.703125 -129.078125 C 77.722656 -129.078125 69.835938 -127.488281 63.046875 -124.3125 C 56.265625 -121.132812 50.679688 -116.972656 46.296875 -111.828125 C 41.921875 -106.679688 38.640625 -100.820312 36.453125 -94.25 C 34.265625 -87.6875 33.171875 -80.90625 33.171875 -73.90625 C 33.171875 -65.800781 34.484375 -57.859375 37.109375 -50.078125 C 39.742188 -42.304688 43.519531 -35.351562 48.4375 -29.21875 C 53.363281 -23.09375 59.332031 -18.171875 66.34375 -14.453125 C 73.351562 -10.734375 81.234375 -8.875 89.984375 -8.875 C 96.117188 -8.875 101.757812 -9.75 106.90625 -11.5 C 112.050781 -13.25 116.429688 -15.546875 120.046875 -18.390625 C 123.660156 -21.234375 126.5625 -24.351562 128.75 -27.75 C 130.9375 -31.144531 132.25 -34.375 132.6875 -37.4375 L 135.96875 -37.4375 Z M 135.96875 -11.828125 "/></g></g></g><g fill="#ffffff" fill-opacity="1"><g transform="translate(281.078786, 327.395911)"><g/></g></g><g fill="#ffffff" fill-opacity="1"><g transform="translate(347.093252, 327.395911)"><g/></g></g><g fill="#ffffff" fill-opacity="1"><g transform="translate(413.107717, 327.395911)"><g/></g></g><g fill="#95b811" fill-opacity="1"><g transform="translate(479.128871, 327.395911)"><g><path d="M 101.484375 0 L 101.484375 -16.75 L 99.84375 -15.109375 C 94.375 -9.628906 88.078125 -5.359375 80.953125 -2.296875 C 73.835938 0.765625 65.242188 2.296875 55.171875 2.296875 C 47.515625 2.296875 40.945312 1.421875 35.46875 -0.328125 C 30 -2.078125 25.507812 -4.539062 22 -7.71875 C 18.5 -10.894531 15.925781 -14.5625 14.28125 -18.71875 C 12.644531 -22.882812 11.828125 -27.265625 11.828125 -31.859375 C 11.828125 -39.304688 13.847656 -45.875 17.890625 -51.5625 C 21.941406 -57.257812 27.800781 -62.296875 35.46875 -66.671875 C 43.132812 -71.046875 52.492188 -75.039062 63.546875 -78.65625 C 74.609375 -82.269531 87.253906 -85.828125 101.484375 -89.328125 C 101.046875 -97.867188 99.296875 -104.765625 96.234375 -110.015625 C 93.171875 -115.273438 89.554688 -119.382812 85.390625 -122.34375 C 81.234375 -125.300781 76.851562 -127.269531 72.25 -128.25 C 67.65625 -129.238281 63.71875 -129.734375 60.4375 -129.734375 C 54.738281 -129.734375 49.753906 -128.859375 45.484375 -127.109375 C 41.210938 -125.359375 37.488281 -123.113281 34.3125 -120.375 C 31.144531 -117.632812 28.460938 -114.675781 26.265625 -111.5 C 24.078125 -108.332031 22.328125 -105.320312 21.015625 -102.46875 L 18.0625 -102.46875 L 18.0625 -126.453125 C 19.8125 -126.671875 21.453125 -127.21875 22.984375 -128.09375 C 24.523438 -128.96875 26.390625 -129.84375 28.578125 -130.71875 C 31.859375 -132.03125 36.34375 -133.945312 42.03125 -136.46875 C 47.726562 -138.988281 55.722656 -140.25 66.015625 -140.25 C 78.054688 -140.25 87.796875 -138.710938 95.234375 -135.640625 C 102.679688 -132.578125 108.429688 -128.523438 112.484375 -123.484375 C 116.535156 -118.453125 119.21875 -112.707031 120.53125 -106.25 C 121.84375 -99.789062 122.5 -93.164062 122.5 -86.375 L 122.5 -21.34375 C 122.5 -16.96875 123.484375 -12.863281 125.453125 -9.03125 C 127.429688 -5.195312 130.0625 -3.28125 133.34375 -3.28125 L 133.34375 0 Z M 101.484375 -31.203125 L 101.484375 -78.171875 L 98.203125 -77.515625 C 92.953125 -76.203125 86.546875 -74.445312 78.984375 -72.25 C 71.429688 -70.0625 64.257812 -67.21875 57.46875 -63.71875 C 50.6875 -60.21875 44.882812 -56.054688 40.0625 -51.234375 C 35.25 -46.421875 32.84375 -40.835938 32.84375 -34.484375 C 32.84375 -27.472656 35.6875 -21.671875 41.375 -17.078125 C 47.070312 -12.484375 54.519531 -10.1875 63.71875 -10.1875 C 70.945312 -10.1875 77.296875 -11.769531 82.765625 -14.9375 C 88.242188 -18.113281 93.28125 -22.222656 97.875 -27.265625 Z M 101.484375 -31.203125 "/></g></g></g><g fill="#95b811" fill-opacity="1"><g transform="translate(609.844592, 327.395911)"><g><path d="M 45.328125 -126.78125 L 45.328125 -21.34375 C 45.328125 -19.59375 45.546875 -17.675781 45.984375 -15.59375 C 46.421875 -13.519531 47.128906 -11.601562 48.109375 -9.84375 C 49.097656 -8.09375 50.191406 -6.5625 51.390625 -5.25 C 52.597656 -3.9375 54.078125 -3.28125 55.828125 -3.28125 L 55.828125 0 L 13.140625 0 L 13.140625 -3.28125 C 14.671875 -3.28125 16.09375 -3.9375 17.40625 -5.25 C 18.71875 -6.5625 19.863281 -8.09375 20.84375 -9.84375 C 21.832031 -11.601562 22.546875 -13.519531 22.984375 -15.59375 C 23.421875 -17.675781 23.640625 -19.59375 23.640625 -21.34375 L 23.640625 -126.78125 L 7.21875 -126.78125 L 7.21875 -137.9375 L 23.640625 -137.9375 L 23.640625 -164.546875 C 23.640625 -171.335938 23.859375 -177.90625 24.296875 -184.25 C 24.742188 -190.601562 26.0625 -196.296875 28.25 -201.328125 C 30.4375 -206.367188 33.773438 -210.421875 38.265625 -213.484375 C 42.753906 -216.546875 48.9375 -218.078125 56.8125 -218.078125 C 61.195312 -218.078125 64.972656 -217.582031 68.140625 -216.59375 C 71.316406 -215.613281 74.054688 -214.519531 76.359375 -213.3125 C 78.660156 -212.113281 80.578125 -211.019531 82.109375 -210.03125 C 83.640625 -209.050781 84.953125 -208.5625 86.046875 -208.5625 L 86.046875 -184.578125 L 83.09375 -184.578125 C 82 -190.929688 79.148438 -196.242188 74.546875 -200.515625 C 69.953125 -204.785156 65.359375 -206.921875 60.765625 -206.921875 C 54.410156 -206.921875 50.25 -203.578125 48.28125 -196.890625 C 46.3125 -190.210938 45.328125 -180.960938 45.328125 -169.140625 L 45.328125 -137.9375 L 82.4375 -137.9375 L 82.4375 -126.78125 Z M 45.328125 -126.78125 "/></g></g></g><g fill="#95b811" fill-opacity="1"><g transform="translate(682.427709, 327.395911)"><g><path d="M 101.484375 0 L 101.484375 -16.75 L 99.84375 -15.109375 C 94.375 -9.628906 88.078125 -5.359375 80.953125 -2.296875 C 73.835938 0.765625 65.242188 2.296875 55.171875 2.296875 C 47.515625 2.296875 40.945312 1.421875 35.46875 -0.328125 C 30 -2.078125 25.507812 -4.539062 22 -7.71875 C 18.5 -10.894531 15.925781 -14.5625 14.28125 -18.71875 C 12.644531 -22.882812 11.828125 -27.265625 11.828125 -31.859375 C 11.828125 -39.304688 13.847656 -45.875 17.890625 -51.5625 C 21.941406 -57.257812 27.800781 -62.296875 35.46875 -66.671875 C 43.132812 -71.046875 52.492188 -75.039062 63.546875 -78.65625 C 74.609375 -82.269531 87.253906 -85.828125 101.484375 -89.328125 C 101.046875 -97.867188 99.296875 -104.765625 96.234375 -110.015625 C 93.171875 -115.273438 89.554688 -119.382812 85.390625 -122.34375 C 81.234375 -125.300781 76.851562 -127.269531 72.25 -128.25 C 67.65625 -129.238281 63.71875 -129.734375 60.4375 -129.734375 C 54.738281 -129.734375 49.753906 -128.859375 45.484375 -127.109375 C 41.210938 -125.359375 37.488281 -123.113281 34.3125 -120.375 C 31.144531 -117.632812 28.460938 -114.675781 26.265625 -111.5 C 24.078125 -108.332031 22.328125 -105.320312 21.015625 -102.46875 L 18.0625 -102.46875 L 18.0625 -126.453125 C 19.8125 -126.671875 21.453125 -127.21875 22.984375 -128.09375 C 24.523438 -128.96875 26.390625 -129.84375 28.578125 -130.71875 C 31.859375 -132.03125 36.34375 -133.945312 42.03125 -136.46875 C 47.726562 -138.988281 55.722656 -140.25 66.015625 -140.25 C 78.054688 -140.25 87.796875 -138.710938 95.234375 -135.640625 C 102.679688 -132.578125 108.429688 -128.523438 112.484375 -123.484375 C 116.535156 -118.453125 119.21875 -112.707031 120.53125 -106.25 C 121.84375 -99.789062 122.5 -93.164062 122.5 -86.375 L 122.5 -21.34375 C 122.5 -16.96875 123.484375 -12.863281 125.453125 -9.03125 C 127.429688 -5.195312 130.0625 -3.28125 133.34375 -3.28125 L 133.34375 0 Z M 101.484375 -31.203125 L 101.484375 -78.171875 L 98.203125 -77.515625 C 92.953125 -76.203125 86.546875 -74.445312 78.984375 -72.25 C 71.429688 -70.0625 64.257812 -67.21875 57.46875 -63.71875 C 50.6875 -60.21875 44.882812 -56.054688 40.0625 -51.234375 C 35.25 -46.421875 32.84375 -40.835938 32.84375 -34.484375 C 32.84375 -27.472656 35.6875 -21.671875 41.375 -17.078125 C 47.070312 -12.484375 54.519531 -10.1875 63.71875 -10.1875 C 70.945312 -10.1875 77.296875 -11.769531 82.765625 -14.9375 C 88.242188 -18.113281 93.28125 -22.222656 97.875 -27.265625 Z M 101.484375 -31.203125 "/></g></g></g><g clip-path="url(#90785478c3)"><path fill="#95b811" d="M 549.421875 65.28125 C 542.496094 63.648438 541.84375 63.324219 537.207031 57.902344 C 534.398438 54.570312 531.71875 51.238281 527.667969 49.214844 C 522.117188 46.40625 514.996094 47.972656 511.925781 52.804688 C 500.625 51.042969 489.71875 51.761719 479.265625 57.25 C 479.855469 54.570312 480.574219 52.21875 480.898438 49.800781 C 481.226562 47.386719 481.226562 44.902344 481.421875 42.484375 C 481.683594 39.742188 482.46875 37.195312 484.363281 34.84375 C 485.667969 41.507812 489.261719 44.316406 495.53125 43.660156 C 500.691406 43.140625 505.066406 41.050781 508.53125 37.128906 C 510.816406 34.515625 513.101562 31.902344 515.519531 29.421875 C 517.871094 27.003906 520.941406 26.222656 524.273438 26.613281 C 524.664062 26.679688 525.121094 26.742188 525.710938 26.808594 C 518.261719 18.1875 510.292969 14.855469 497.753906 15.378906 C 491.675781 15.640625 486.910156 18.515625 483.445312 23.476562 C 481.421875 26.351562 480.898438 29.421875 483.121094 32.492188 C 483.316406 32.753906 483.445312 33.339844 483.316406 33.601562 C 482.53125 35.105469 481.617188 36.542969 480.769531 37.980469 C 480.574219 37.78125 480.441406 37.71875 480.441406 37.585938 C 479.265625 32.296875 476.980469 27.527344 472.996094 23.675781 C 472.667969 23.414062 472.539062 22.5625 472.734375 22.171875 C 474.105469 19.035156 473.324219 16.292969 471.230469 13.875 C 468.097656 10.285156 464.113281 7.996094 459.277344 7.605469 C 451.570312 6.953125 444.582031 9.171875 438.117188 13.15625 C 434 15.703125 431.0625 19.492188 428.316406 23.675781 C 435.632812 22.367188 437.527344 22.890625 443.210938 27.722656 C 444.582031 28.898438 445.953125 30.074219 447.324219 31.25 C 451.503906 34.84375 456.339844 36.28125 461.828125 35.953125 C 468.164062 35.628906 471.429688 32.296875 471.691406 26.027344 C 471.691406 25.828125 471.820312 25.632812 471.886719 25.4375 C 472.082031 25.566406 472.210938 25.632812 472.277344 25.699219 C 472.472656 25.894531 472.605469 26.027344 472.734375 26.222656 C 479.070312 33.40625 480.050781 41.765625 477.828125 50.652344 C 475.152344 61.558594 467.769531 68.746094 458.101562 73.644531 C 450.789062 77.300781 443.210938 80.503906 435.765625 83.898438 C 435.4375 84.03125 435.109375 84.03125 434.785156 84.160156 C 436.679688 81.15625 438.574219 78.214844 440.464844 75.34375 C 440.664062 75.015625 441.382812 74.753906 441.773438 74.820312 C 446.148438 75.472656 449.023438 73.382812 450.917969 69.722656 C 453.203125 65.21875 454.183594 60.320312 452.679688 55.417969 C 448.761719 42.941406 440.792969 34.125 427.992188 30.335938 C 427.011719 30.011719 425.964844 29.8125 424.726562 29.488281 C 429.492188 35.953125 428.316406 40.332031 426.292969 45.816406 C 425.378906 48.363281 424.332031 50.847656 423.484375 53.394531 C 421.65625 59.078125 422.242188 64.628906 424.921875 69.921875 C 427.46875 74.949219 431.777344 76.648438 437.070312 74.820312 C 437.460938 74.6875 437.789062 74.625 438.441406 74.492188 C 434.523438 82.136719 428.054688 86.902344 421.589844 91.738281 C 421.523438 91.410156 421.457031 91.28125 421.523438 91.214844 C 421.71875 90.625 421.914062 90.105469 422.046875 89.515625 C 424.332031 82.332031 423.550781 75.539062 418.976562 69.398438 C 417.671875 67.699219 416.167969 66.132812 414.796875 64.5 C 414.46875 64.105469 414.144531 63.453125 414.207031 63.0625 C 415.253906 58.621094 414.402344 55.941406 410.679688 53.265625 C 406.304688 50.0625 401.472656 48.625 395.984375 49.605469 C 386.644531 51.304688 378.609375 55.222656 373.1875 63.453125 C 372.207031 64.957031 371.292969 66.523438 370.3125 68.027344 C 370.378906 68.15625 370.445312 68.289062 370.574219 68.417969 C 376.125 65.480469 380.828125 67.570312 385.273438 70.835938 C 386.382812 71.617188 387.558594 72.402344 388.601562 73.25 C 392.847656 76.453125 397.550781 78.085938 402.84375 77.628906 C 410.679688 76.976562 414.601562 72.46875 413.488281 66.261719 C 413.488281 66.195312 413.554688 66.066406 413.75 65.804688 C 416.496094 68.15625 418.257812 71.03125 419.171875 74.492188 C 420.871094 80.960938 420.28125 87.230469 417.277344 93.175781 C 416.558594 94.613281 415.382812 95.984375 414.078125 96.832031 C 403.5625 103.558594 395.070312 112.3125 387.949219 122.4375 C 387.820312 122.566406 387.6875 122.699219 387.492188 122.828125 C 386.511719 120.542969 385.730469 118.324219 384.554688 116.363281 C 383.050781 113.816406 382.398438 111.070312 382.136719 108.199219 C 381.808594 104.410156 382.984375 101.011719 385.074219 97.617188 C 386.578125 102.644531 388.996094 104.410156 393.699219 103.886719 C 394.9375 103.757812 396.179688 103.363281 397.355469 102.972656 C 401.339844 101.730469 403.625 98.53125 405.976562 95.394531 C 408.523438 92 411.269531 88.992188 416.558594 89.972656 C 416.039062 89.386719 415.90625 89.125 415.710938 88.929688 C 409.765625 82.917969 402.386719 81.15625 394.285156 82.136719 C 389.972656 82.65625 386.578125 84.945312 384.160156 88.601562 C 382.789062 90.757812 382.332031 92.976562 383.835938 95.328125 C 384.097656 95.722656 383.964844 96.503906 383.769531 97.027344 C 382.855469 99.773438 381.746094 102.515625 380.960938 105.257812 C 380.570312 106.695312 380.699219 108.261719 380.632812 109.570312 C 377.367188 106.890625 374.101562 104.148438 370.835938 101.535156 C 369.269531 100.230469 367.570312 99.117188 366.003906 97.8125 C 347.386719 82.136719 348.496094 60.972656 356.855469 45.949219 C 357.183594 45.292969 357.640625 44.707031 358.230469 43.921875 C 360.1875 51.761719 364.171875 54.441406 371.621094 53.132812 C 376.910156 52.21875 381.484375 49.867188 385.011719 45.6875 C 387.363281 42.941406 389.648438 40.199219 392.128906 37.652344 C 395.265625 34.453125 399.121094 33.144531 403.625 34.058594 C 403.824219 34.125 404.019531 34.058594 404.28125 34.058594 C 404.148438 33.796875 404.148438 33.667969 404.082031 33.601562 C 403.757812 33.210938 403.429688 32.882812 403.105469 32.558594 C 395.332031 23.933594 385.335938 20.800781 374.035156 20.996094 C 367.308594 21.125 361.757812 23.738281 357.378906 28.964844 C 353.789062 33.277344 353.589844 36.738281 356.597656 41.441406 C 351.566406 47.1875 349.34375 54.242188 348.234375 61.753906 C 346.535156 59.796875 345.035156 58.03125 343.597656 56.203125 C 343.335938 55.875 343.140625 55.15625 343.335938 54.832031 C 344.707031 51.695312 343.597656 49.148438 341.375 47.058594 C 337.652344 43.53125 333.210938 41.964844 328.050781 42.421875 C 323.21875 42.8125 318.839844 44.511719 314.660156 46.796875 C 309.957031 49.34375 306.886719 53.460938 304.011719 58.488281 C 309.175781 56.007812 313.09375 57.640625 316.816406 60.515625 C 318.578125 61.886719 320.34375 63.191406 322.105469 64.5 C 326.089844 67.308594 330.535156 68.089844 335.300781 67.308594 C 340.265625 66.457031 342.683594 63.453125 342.683594 58.488281 C 342.683594 58.226562 342.683594 57.96875 342.75 57.3125 C 346.078125 60.515625 347.84375 64.171875 347.972656 68.289062 C 348.234375 77.433594 351.175781 85.53125 356.660156 92.78125 C 356.921875 93.109375 357.117188 93.5 357.574219 94.21875 C 356.074219 93.5 354.964844 92.976562 353.917969 92.457031 C 346.078125 88.667969 338.175781 84.878906 330.335938 81.023438 C 326.027344 78.933594 321.585938 77.105469 317.535156 74.558594 C 305.515625 66.914062 299.3125 56.136719 300.945312 41.570312 C 301.53125 36.410156 304.144531 32.363281 307.738281 28.3125 C 307.800781 29.03125 307.867188 29.292969 307.867188 29.617188 C 308.0625 34.84375 310.480469 37.914062 315.640625 38.894531 C 320.800781 39.875 325.699219 39.089844 330.078125 36.085938 C 332.6875 34.253906 335.105469 32.035156 337.589844 29.945312 C 339.742188 28.179688 342.03125 26.484375 344.839844 26.285156 C 346.863281 26.15625 348.953125 26.546875 350.980469 26.679688 C 350.980469 26.742188 350.980469 26.613281 350.980469 26.546875 C 343.925781 15.507812 333.667969 10.542969 320.800781 10.871094 C 315.445312 11 310.9375 13.746094 307.671875 18.054688 C 306.039062 20.210938 305.582031 22.628906 306.757812 25.175781 C 307.214844 26.089844 307.082031 26.613281 306.363281 27.332031 C 302.96875 30.53125 300.878906 34.515625 299.636719 39.023438 C 299.441406 39.742188 299.246094 40.460938 298.984375 41.375 C 297.351562 38.566406 295.914062 35.953125 294.410156 33.277344 C 296.699219 29.355469 296.5 26.484375 293.5625 22.957031 C 290.820312 19.625 287.421875 17.078125 283.109375 16.488281 C 271.613281 14.398438 261.492188 17.078125 253.324219 25.632812 C 252.34375 26.613281 251.496094 27.722656 250.515625 28.703125 C 255.742188 27.460938 259.792969 29.226562 263.253906 32.753906 C 264.820312 34.386719 266.453125 36.019531 267.957031 37.71875 C 271.222656 41.308594 275.207031 43.660156 280.042969 44.316406 C 284.222656 44.835938 288.402344 44.902344 291.210938 41.179688 C 292.515625 39.546875 293.039062 37.261719 293.824219 35.367188 C 295.066406 36.476562 297.15625 40.394531 297.675781 43.660156 C 298.527344 49.148438 299.179688 54.636719 299.898438 60.121094 C 295.195312 57.507812 289.96875 55.941406 284.351562 55.417969 C 278.800781 54.898438 273.3125 54.570312 267.761719 56.074219 C 266.128906 53.132812 265.082031 52.152344 262.730469 51.566406 C 259.074219 50.585938 255.480469 50.652344 252.019531 52.285156 C 248.492188 53.917969 245.8125 56.59375 243.527344 59.601562 C 240.195312 63.910156 236.472656 67.699219 230.527344 68.222656 C 230.464844 68.222656 230.464844 68.289062 230.265625 68.417969 C 234.054688 74.296875 239.804688 77.433594 246.402344 79.847656 C 242.875 82.527344 240.390625 85.859375 238.433594 89.515625 C 236.40625 93.238281 234.578125 96.960938 234.1875 101.273438 C 233.859375 105.390625 233.925781 109.4375 235.035156 113.878906 C 237.320312 108.523438 241.4375 106.628906 246.464844 106.238281 C 248.230469 106.109375 249.929688 105.976562 251.691406 105.910156 C 258.09375 105.714844 263.644531 103.558594 267.828125 98.53125 C 271.8125 93.695312 271.679688 89.386719 267.367188 84.8125 C 267.304688 84.746094 267.304688 84.617188 267.238281 84.160156 C 268.675781 84.421875 269.980469 84.617188 271.289062 84.878906 C 272.464844 85.074219 272.855469 85.664062 272.59375 86.902344 C 272.332031 87.949219 272.269531 89.058594 272.136719 90.5625 C 273.050781 89.777344 273.640625 89.253906 274.226562 88.734375 C 275.46875 87.621094 276.578125 87.296875 278.148438 88.535156 C 281.21875 90.886719 284.808594 92.324219 288.597656 92.976562 C 289.773438 93.175781 290.949219 93.304688 292.191406 93.5 C 282.523438 98.398438 275.925781 105.976562 271.550781 115.710938 C 269.261719 115.054688 267.109375 115.253906 265.214844 116.625 C 261.816406 119.039062 259.464844 122.175781 258.617188 126.355469 C 257.832031 130.210938 258.421875 134 259.269531 137.722656 C 260.378906 142.6875 260.640625 147.585938 257.441406 152.027344 C 257.375 152.09375 257.441406 152.222656 257.375 152.617188 C 258.746094 152.617188 260.117188 152.746094 261.492188 152.617188 C 270.894531 151.765625 278.34375 147.0625 284.746094 140.53125 C 291.667969 133.476562 291.863281 125.246094 286.246094 116.820312 C 283.894531 113.292969 280.824219 112.640625 277.035156 114.402344 C 275.925781 114.925781 274.882812 115.511719 273.835938 116.101562 C 279.84375 102.710938 291.210938 96.636719 304.601562 92.652344 C 299.179688 103.363281 298.070312 113.816406 304.273438 124.527344 C 304.40625 124.136719 304.601562 123.875 304.601562 123.546875 C 305.253906 119.890625 307.476562 117.40625 310.742188 115.839844 C 312.765625 114.859375 314.921875 114.078125 317.078125 113.292969 C 321.910156 111.660156 325.765625 108.917969 328.3125 104.410156 C 331.1875 99.378906 331.382812 93.4375 325.242188 90.496094 C 325.175781 90.429688 325.175781 90.300781 324.980469 89.910156 C 325.894531 89.84375 326.808594 89.582031 327.660156 89.710938 C 330.273438 89.972656 333.015625 89.972656 335.433594 90.757812 C 347.84375 94.871094 359.863281 99.96875 369.988281 108.589844 C 374.492188 112.445312 377.890625 117.082031 380.046875 122.566406 C 380.242188 123.027344 380.308594 123.546875 380.4375 124.003906 C 378.152344 122.765625 375.929688 121.523438 373.773438 120.28125 C 373.449219 120.085938 373.058594 119.433594 373.121094 119.039062 C 373.316406 115.253906 371.292969 112.964844 368.09375 111.527344 C 364.171875 109.832031 359.925781 109.113281 355.8125 110.550781 C 344.511719 114.535156 336.871094 122.109375 333.863281 133.933594 C 333.539062 135.175781 333.34375 136.417969 333.082031 137.65625 C 337.652344 133.410156 342.683594 133.867188 347.910156 135.5 C 349.933594 136.15625 352.023438 136.808594 354.113281 137.394531 C 360.449219 139.09375 366.261719 137.917969 371.359375 133.867188 C 374.753906 131.191406 375.605469 127.402344 373.972656 123.417969 C 373.773438 123.027344 373.710938 122.566406 373.515625 122.175781 C 373.644531 122.046875 373.773438 121.914062 373.90625 121.785156 C 375.472656 122.894531 377.105469 123.808594 378.476562 125.117188 C 379.785156 126.355469 381.351562 127.792969 381.808594 129.425781 C 382.460938 131.777344 382.136719 134.390625 382.332031 136.875 C 382.527344 139.550781 382.398438 142.292969 382.984375 144.84375 C 383.703125 147.78125 384.945312 150.589844 386.121094 153.398438 C 387.164062 155.882812 388.40625 158.296875 389.582031 160.714844 C 392.195312 166.070312 389.84375 174.695312 384.03125 177.242188 C 392.066406 175.738281 400.097656 176.195312 408.199219 177.761719 C 407.480469 177.371094 407.023438 176.785156 406.890625 175.933594 C 406.566406 173.320312 406.304688 170.707031 406.238281 168.097656 C 406.109375 165.222656 406.5 162.347656 406.175781 159.472656 C 405.585938 153.59375 402.320312 148.957031 398.53125 144.710938 C 395.789062 141.707031 394.742188 138.246094 395.265625 134.261719 C 396.113281 128.1875 398.660156 122.699219 402.058594 117.800781 C 405.195312 113.226562 409.898438 110.289062 414.992188 108.132812 C 415.578125 107.871094 416.167969 107.742188 416.953125 107.542969 C 414.730469 113.683594 415.449219 116.949219 419.628906 119.890625 C 423.351562 122.503906 427.535156 123.742188 432.039062 122.828125 C 435.109375 122.242188 438.050781 121.261719 441.054688 120.414062 C 445.5625 119.039062 449.808594 119.171875 453.464844 122.632812 C 453.53125 122.699219 453.660156 122.632812 453.792969 122.632812 C 452.222656 111.070312 445.5625 103.363281 435.304688 98.597656 C 431.125 96.636719 426.683594 96.832031 422.375 98.464844 C 419.105469 99.707031 416.886719 101.796875 416.953125 105.648438 C 416.953125 105.976562 416.625 106.566406 416.296875 106.695312 C 413.226562 108.066406 410.09375 109.308594 407.152344 110.550781 C 407.808594 109.765625 408.589844 108.785156 409.441406 107.871094 C 415.972656 101.144531 423.808594 96.246094 432.171875 92.128906 C 441.511719 87.558594 451.308594 85.726562 461.628906 86.902344 C 465.355469 87.296875 468.226562 89.253906 471.234375 91.738281 C 470.578125 91.867188 470.382812 91.867188 470.121094 91.933594 C 465.613281 92.261719 463.132812 94.480469 462.347656 98.921875 C 461.761719 102.515625 462.085938 106.171875 464.046875 109.175781 C 465.941406 112.246094 468.554688 114.859375 470.90625 117.605469 C 473.324219 120.414062 475.28125 123.285156 474.695312 127.207031 C 474.5625 127.925781 474.433594 128.644531 474.238281 129.558594 C 481.617188 124.722656 485.539062 117.929688 486.910156 109.570312 C 488.019531 102.90625 486.84375 97.09375 481.8125 92.261719 C 481.75 92.195312 481.8125 92.0625 481.8125 92 C 491.285156 94.351562 505.65625 106.890625 505.785156 112.902344 C 504.285156 112.183594 502.847656 111.332031 501.28125 110.746094 C 498.730469 109.765625 496.445312 110.417969 494.550781 112.3125 C 488.804688 118.0625 487.824219 128.121094 492.722656 134.652344 C 498.078125 141.773438 505.199219 146.476562 513.820312 148.761719 C 516.5625 149.546875 519.4375 149.742188 522.378906 149.285156 C 522.183594 148.890625 522.117188 148.628906 522.050781 148.5 C 519.765625 145.167969 519.242188 141.511719 519.894531 137.527344 C 520.550781 133.542969 521.203125 129.492188 521.332031 125.441406 C 521.527344 119.367188 514.996094 110.484375 508.074219 112.445312 C 503.761719 102.777344 497.097656 95.328125 486.972656 90.496094 C 487.953125 90.300781 488.347656 90.234375 488.804688 90.167969 C 492.789062 89.777344 496.511719 88.601562 499.972656 86.511719 C 503.695312 84.226562 503.695312 84.289062 507.027344 86.902344 C 507.09375 86.96875 507.222656 86.902344 507.484375 86.96875 C 507.355469 85.792969 507.160156 84.683594 507.09375 83.570312 C 507.09375 83.113281 507.222656 82.265625 507.417969 82.199219 C 509.050781 81.679688 510.75 81.351562 512.382812 80.960938 C 507.875 86.839844 507.875 91.214844 512.515625 96.113281 C 515.519531 99.378906 519.113281 101.664062 523.617188 102.253906 C 526.558594 102.644531 529.5625 102.777344 532.566406 102.972656 C 537.664062 103.363281 542.039062 104.996094 544.457031 109.960938 C 544.519531 110.027344 544.652344 110.09375 544.78125 110.222656 C 547.851562 96.765625 543.214844 85.921875 533.546875 76.582031 C 539.949219 74.363281 545.632812 71.226562 549.421875 65.28125 Z M 272.921875 83.441406 C 270.960938 83.179688 268.871094 82.984375 266.847656 82.59375 C 266.257812 82.460938 265.867188 81.679688 265.082031 80.960938 C 270.4375 78.738281 273.378906 74.949219 275.273438 70.246094 C 275.730469 69.136719 276.054688 67.960938 276.253906 66.785156 C 276.839844 63.585938 275.535156 60.972656 272.59375 59.535156 C 271.355469 58.882812 269.980469 58.425781 268.609375 57.835938 C 273.964844 54.960938 290.230469 55.746094 298.917969 62.605469 C 285.070312 62.929688 278.015625 71.75 272.921875 83.441406 Z M 319.296875 85.664062 C 317.011719 84.746094 314.464844 85.335938 312.375 86.511719 C 307.671875 89.125 302.511719 89.84375 297.351562 90.039062 C 293.953125 90.167969 290.558594 89.972656 287.160156 89.777344 C 284.484375 89.648438 282.066406 88.535156 279.910156 86.902344 C 279.910156 86.707031 279.976562 86.578125 279.976562 86.382812 C 281.675781 86.578125 283.371094 86.773438 285.003906 87.097656 C 287.8125 87.621094 290.621094 88.40625 293.433594 88.734375 C 298.132812 89.320312 302.316406 87.816406 305.972656 84.878906 C 309.828125 81.742188 310.546875 77.757812 308.195312 73.382812 C 308.0625 73.121094 307.933594 72.859375 307.800781 72.597656 C 307.933594 72.46875 308.0625 72.335938 308.128906 72.207031 C 310.285156 73.96875 312.308594 75.929688 314.53125 77.496094 C 316.945312 79.195312 319.558594 80.566406 322.105469 81.9375 C 324.589844 83.3125 327.136719 84.550781 329.617188 86.054688 C 326.222656 85.726562 322.824219 87.035156 319.296875 85.664062 Z M 472.929688 91.019531 C 472.015625 90.167969 471.035156 89.386719 470.121094 88.601562 C 470.1875 88.472656 470.1875 88.339844 470.253906 88.273438 C 472.015625 88.734375 473.78125 89.191406 476 89.710938 C 474.695312 90.300781 473.84375 90.625 472.929688 91.019531 Z M 491.21875 86.902344 C 484.882812 87.425781 478.679688 87.097656 472.539062 85.53125 C 465.613281 83.832031 458.496094 83.050781 451.375 83.179688 C 450.917969 83.179688 450.460938 83.179688 449.9375 82.984375 C 457.449219 78.804688 465.484375 75.472656 471.429688 68.808594 C 471.558594 69.007812 471.691406 69.203125 471.886719 69.398438 C 471.820312 69.527344 471.820312 69.722656 471.753906 69.855469 C 468.292969 75.210938 470.773438 80.046875 475.085938 82.789062 C 479.527344 85.664062 484.296875 86.382812 489.390625 85.207031 C 491.613281 84.683594 493.832031 84.160156 496.054688 83.769531 C 497.230469 83.574219 498.472656 83.574219 499.710938 83.636719 C 497.230469 85.921875 494.289062 86.640625 491.21875 86.902344 Z M 512.121094 79.71875 C 510.292969 79.785156 508.464844 80.175781 506.699219 80.371094 C 501.738281 68.808594 494.683594 59.925781 480.769531 59.601562 C 485.929688 54.242188 503.828125 51.238281 511.078125 54.699219 C 509.835938 55.15625 508.726562 55.617188 507.679688 56.074219 C 503.695312 57.902344 502.257812 60.710938 503.566406 64.957031 C 505.265625 70.574219 508.335938 75.144531 513.953125 77.628906 C 514.082031 79.195312 513.496094 79.652344 512.121094 79.71875 Z M 512.121094 79.71875 " fill-opacity="1" fill-rule="nonzero"/></g><path fill="#0097b2" d="M 384.03125 177.175781 C 383.636719 177.371094 383.246094 177.503906 382.789062 177.632812 C 380.046875 178.351562 377.433594 179.398438 374.820312 180.375 C 362.277344 185.078125 350.71875 191.351562 341.636719 201.410156 C 338.828125 204.480469 336.609375 208.070312 334.0625 211.46875 C 328.507812 218.914062 324.394531 227.144531 321.910156 236.09375 C 318.320312 248.960938 317.863281 261.960938 321.0625 275.023438 C 330.925781 315.523438 370.246094 340.671875 411.007812 332.375 C 456.207031 323.164062 483.054688 276.65625 468.359375 232.699219 C 466.269531 226.425781 463.003906 220.742188 459.800781 214.929688 C 456.011719 208.070312 451.308594 202.0625 445.300781 197.03125 C 434.652344 188.085938 422.375 182.335938 409.242188 178.222656 C 408.851562 178.089844 408.460938 177.960938 408.132812 177.761719 C 400.097656 176.195312 392.066406 175.671875 384.03125 177.175781 Z M 377.628906 184.425781 C 377.824219 184.558594 377.957031 184.6875 378.152344 184.753906 C 377.628906 185.796875 377.171875 186.84375 376.582031 188.019531 C 375.667969 187.300781 375.015625 186.710938 374.167969 185.992188 C 375.40625 185.472656 376.519531 184.949219 377.628906 184.425781 Z M 335.367188 223.878906 C 336.347656 222.964844 337.589844 222.378906 338.828125 221.527344 C 339.480469 225.1875 339.941406 228.253906 340.59375 231.390625 C 341.636719 236.421875 343.792969 240.992188 346.601562 245.238281 C 347.125 245.957031 347.710938 246.675781 348.105469 247.460938 C 348.429688 248.046875 348.757812 248.960938 348.5625 249.417969 C 348.234375 250.074219 347.386719 250.53125 346.734375 251.050781 C 346.535156 250.855469 346.339844 250.660156 346.144531 250.464844 C 346.472656 250.074219 346.796875 249.617188 347.253906 249.09375 C 344.382812 249.417969 341.574219 249.550781 340.070312 252.554688 C 339.417969 251.707031 338.960938 250.988281 338.4375 250.398438 C 338.242188 250.203125 337.847656 250.007812 337.589844 250.007812 C 336.871094 249.875 335.628906 250.007812 335.5625 249.746094 C 335.171875 248.570312 334.910156 247.265625 335.105469 246.023438 C 335.238281 244.976562 336.019531 243.933594 336.542969 242.953125 C 337.390625 241.386719 337.066406 240.40625 335.300781 239.882812 C 334.648438 239.6875 334.0625 239.425781 333.210938 239.097656 C 334.910156 236.878906 336.414062 234.984375 338.046875 232.894531 C 336.871094 232.175781 335.757812 231.914062 334.84375 233.285156 C 334.519531 233.742188 334.125 234.394531 333.601562 234.527344 C 332.886719 234.722656 331.96875 234.789062 331.316406 234.460938 C 330.925781 234.332031 330.597656 233.21875 330.792969 232.761719 C 331.578125 230.605469 332.492188 228.453125 333.472656 226.363281 C 333.929688 225.511719 334.582031 224.597656 335.367188 223.878906 Z M 469.402344 249.550781 C 469.730469 251.902344 472.082031 253.925781 470.773438 256.605469 C 470.382812 254.1875 468.621094 252.164062 469.402344 249.550781 Z M 467.574219 237.140625 C 467.902344 238.25 468.226562 239.425781 468.554688 240.535156 C 468.226562 240.601562 467.964844 240.667969 467.640625 240.730469 C 467.378906 239.554688 467.117188 238.378906 466.855469 237.203125 C 467.117188 237.203125 467.378906 237.203125 467.574219 237.140625 Z M 458.300781 232.042969 C 458.363281 231.585938 458.953125 231.195312 459.605469 230.347656 C 460.910156 232.109375 462.023438 233.613281 463.066406 235.113281 C 463.132812 235.179688 462.542969 235.898438 462.21875 235.964844 C 460.78125 236.226562 458.039062 233.546875 458.300781 232.042969 Z M 462.742188 248.242188 C 462.742188 248.441406 462.285156 248.699219 462.085938 248.636719 C 461.761719 248.503906 461.171875 248.242188 461.109375 247.980469 C 460.847656 246.21875 460.519531 244.457031 460.519531 242.691406 C 460.519531 242.300781 461.433594 241.84375 462.085938 241.253906 C 463.261719 243.671875 462.9375 245.957031 462.742188 248.242188 Z M 454.574219 244.652344 C 454.773438 243.996094 454.378906 242.429688 456.144531 243.148438 C 454.316406 241.449219 456.011719 239.816406 455.75 238.25 C 458.691406 241.125 458.886719 244.652344 459.015625 248.242188 C 455.492188 247.460938 454.183594 246.414062 454.574219 244.652344 Z M 450.003906 233.9375 C 451.179688 235.375 451.898438 237.203125 452.484375 238.902344 C 452.878906 240.078125 452.8125 241.449219 452.617188 242.691406 C 452.355469 244.457031 451.832031 246.152344 451.246094 248.503906 C 450.003906 247.394531 449.152344 246.546875 448.238281 245.761719 C 447.71875 245.371094 447.195312 244.976562 446.605469 244.714844 C 445.496094 244.128906 444.386719 243.539062 443.277344 242.953125 C 443.472656 242.820312 443.667969 242.691406 443.863281 242.625 C 443.863281 241.582031 443.929688 240.46875 443.796875 239.425781 C 443.734375 239.097656 443.078125 238.578125 442.6875 238.578125 C 440.335938 238.316406 437.984375 238.183594 435.699219 238.117188 C 434.71875 238.117188 433.738281 238.378906 432.238281 238.640625 C 432.628906 237.464844 432.890625 236.617188 433.214844 235.703125 C 433.347656 235.308594 433.542969 234.851562 433.738281 234.460938 C 434.128906 233.742188 434.328125 232.828125 434.914062 232.4375 C 435.761719 231.847656 437.070312 231.847656 436.679688 230.28125 C 437.136719 230.148438 437.789062 229.824219 438.050781 230.019531 C 439.03125 230.671875 439.75 230.28125 440.664062 229.890625 C 441.183594 229.691406 442.101562 229.824219 442.425781 230.214844 C 443.863281 231.652344 445.234375 233.21875 446.605469 234.789062 C 447.324219 235.570312 447.914062 236.421875 448.566406 237.269531 C 449.546875 236.941406 446.738281 235.113281 449.480469 235.570312 C 447.128906 233.480469 444.515625 231.847656 443.929688 228.84375 C 444.058594 228.714844 444.253906 228.582031 444.386719 228.453125 C 446.34375 230.214844 448.371094 231.914062 450.003906 233.9375 Z M 419.890625 195.855469 C 419.957031 195.660156 420.023438 195.53125 420.085938 195.335938 C 420.9375 195.660156 421.785156 195.988281 423.027344 196.445312 C 422.4375 195.398438 421.980469 194.617188 421.523438 193.898438 C 424.527344 192.785156 426.488281 194.617188 428.511719 196.117188 C 431.386719 198.339844 434.261719 200.625 437.070312 202.976562 C 439.03125 204.609375 438.703125 207.351562 436.613281 208.921875 C 436.15625 209.246094 435.503906 209.964844 435.632812 210.292969 C 436.089844 211.46875 436.679688 212.578125 437.460938 213.558594 C 437.59375 213.691406 438.636719 213.167969 439.488281 212.90625 C 440.269531 214.277344 441.121094 215.648438 442.035156 217.214844 C 442.949219 216.757812 443.339844 216.300781 443.277344 214.996094 C 443.210938 213.691406 443.339844 212.515625 442.230469 211.46875 C 441.839844 211.140625 442.230469 209.964844 442.230469 209.183594 C 442.425781 209.183594 442.621094 209.183594 442.816406 209.117188 C 444.453125 211.402344 446.085938 213.625 447.71875 215.910156 C 447.652344 215.976562 447.519531 216.105469 447.457031 216.171875 C 447.128906 216.039062 446.804688 215.910156 446.148438 215.648438 C 446.34375 216.367188 446.410156 216.957031 446.542969 217.542969 C 446.804688 218.523438 446.542969 218.851562 445.429688 218.652344 C 444.253906 218.457031 442.949219 218.523438 441.773438 218.390625 C 440.269531 218.261719 439.421875 217.675781 439.878906 215.976562 C 439.945312 215.582031 439.617188 215.125 439.488281 214.605469 C 438.898438 215.257812 438.898438 215.257812 439.421875 218.457031 C 437.917969 218.328125 437.199219 219.308594 436.222656 220.222656 C 434.71875 221.59375 432.890625 223.292969 430.210938 222.441406 C 431.386719 223.8125 433.152344 224.664062 432.953125 227.144531 C 431.453125 226.101562 430.082031 225.25 428.839844 224.269531 C 423.15625 219.765625 418.585938 214.210938 414.339844 208.398438 C 414.207031 208.203125 414.011719 208.007812 413.945312 207.8125 C 413.226562 204.804688 412.574219 201.800781 411.855469 198.730469 C 415.253906 198.144531 418.585938 197.554688 422.375 196.902344 C 421.261719 196.511719 420.609375 196.183594 419.890625 195.855469 Z M 412.378906 256.605469 C 412.378906 257.128906 412.25 257.585938 411.855469 258.105469 C 411.464844 255.429688 411.203125 252.75 410.746094 250.136719 C 410.09375 246.546875 409.308594 243.019531 408.589844 239.425781 C 408.460938 238.902344 408.394531 238.183594 408.65625 237.726562 C 412.574219 230.019531 414.078125 221.789062 413.621094 213.753906 C 415.972656 215.910156 418.714844 218.132812 421.261719 220.613281 C 423.808594 223.03125 427.011719 224.792969 429.296875 227.796875 C 427.925781 227.863281 426.683594 227.601562 426.097656 228.058594 C 425.574219 228.515625 425.964844 229.824219 425.835938 230.738281 C 425.640625 232.175781 425.3125 233.613281 425.117188 234.65625 C 426.421875 235.441406 427.335938 236.027344 428.578125 236.8125 C 430.929688 236.355469 431.320312 236.550781 431.0625 238.902344 C 430.082031 238.578125 429.101562 238.183594 428.25 237.921875 C 427.140625 238.640625 425.835938 239.359375 424.726562 240.273438 C 424.007812 240.863281 423.15625 241.84375 423.089844 242.691406 C 422.960938 244.78125 421.394531 245.042969 420.085938 245.761719 C 418.847656 246.480469 417.605469 247.132812 416.496094 247.980469 C 415.578125 248.699219 415.058594 249.875 414.144531 250.59375 C 411.988281 252.226562 412.445312 254.449219 412.378906 256.605469 Z M 397.027344 184.035156 C 401.992188 185.210938 403.691406 189.390625 405.652344 193.246094 C 405.78125 193.503906 405.914062 194.027344 405.847656 194.027344 C 404.28125 195.007812 404.539062 196.707031 404.28125 198.144531 C 404.019531 199.449219 403.5625 200.953125 405.390625 201.800781 C 405.914062 202.0625 406.238281 202.714844 406.761719 203.238281 C 407.414062 202.714844 408.003906 202.257812 408.984375 201.476562 C 409.570312 204.542969 410.160156 207.351562 410.550781 210.164062 C 411.855469 219.765625 410.222656 228.910156 406.171875 237.660156 C 402.582031 245.433594 396.703125 250.59375 388.210938 252.621094 C 388.277344 252.75 388.277344 252.882812 388.339844 253.011719 C 390.496094 252.621094 392.71875 252.226562 395.070312 251.769531 C 393.761719 257.78125 393.960938 263.789062 395.132812 269.277344 C 395.332031 265.816406 395.527344 261.894531 395.851562 257.976562 C 395.984375 256.605469 396.308594 255.234375 396.636719 253.925781 C 397.226562 251.574219 398.269531 249.617188 400.359375 248.046875 C 402.710938 246.21875 404.605469 243.800781 406.761719 241.515625 C 408.265625 245.371094 409.179688 249.417969 409.570312 253.601562 C 410.746094 265.421875 407.480469 276.003906 400.554688 285.542969 C 397.289062 290.046875 394.675781 294.882812 393.699219 300.433594 C 392.785156 305.464844 389.910156 309.1875 386.054688 312.257812 C 386.1875 312.386719 386.316406 312.582031 386.445312 312.714844 C 388.539062 310.886719 390.691406 309.121094 392.652344 307.421875 C 393.4375 308.992188 394.351562 310.820312 395.265625 312.582031 C 392.324219 303.308594 395.917969 295.664062 400.753906 288.023438 C 405.390625 292.597656 408.984375 297.496094 410.875 303.503906 C 409.960938 296.90625 406.371094 291.746094 401.863281 286.976562 C 406.109375 280.839844 409.046875 274.175781 410.746094 266.402344 C 411.59375 267.96875 412.707031 269.015625 412.707031 270.125 C 412.707031 271.953125 413.621094 273.195312 414.730469 274.109375 C 416.167969 275.351562 416.234375 276.722656 416.101562 278.289062 C 415.972656 279.664062 415.777344 281.035156 415.710938 282.472656 C 416.296875 280.902344 416.953125 279.402344 417.605469 277.703125 C 419.890625 277.441406 422.308594 276.65625 424.59375 278.09375 C 424.855469 278.289062 425.378906 278.160156 425.769531 278.09375 C 427.402344 277.832031 429.035156 277.574219 430.667969 277.3125 C 430.734375 277.507812 430.863281 277.636719 430.929688 277.832031 C 428.96875 279.269531 427.011719 280.707031 425.050781 282.144531 C 425.117188 282.210938 425.183594 282.339844 425.183594 282.40625 C 427.792969 280.96875 430.40625 279.464844 433.214844 277.898438 C 433.28125 277.964844 433.476562 278.160156 433.476562 278.355469 C 433.542969 280.121094 434.523438 280.707031 436.222656 280.578125 C 437.59375 280.445312 438.179688 281.492188 437.855469 282.667969 C 437.527344 284.039062 437.070312 285.542969 436.15625 286.519531 C 435.109375 287.632812 435.304688 288.613281 435.765625 289.589844 C 436.546875 291.421875 437.070312 293.3125 436.480469 295.273438 C 435.894531 297.429688 435.566406 299.652344 433.542969 301.285156 C 431.320312 303.046875 429.101562 305.203125 429.230469 308.535156 C 429.230469 309.1875 428.839844 309.90625 428.578125 310.558594 C 427.730469 312.582031 426.945312 314.609375 426.03125 316.566406 C 425.769531 317.089844 425.3125 317.484375 424.921875 317.941406 C 424.398438 318.59375 423.875 319.3125 423.289062 320.09375 C 428.96875 320.8125 433.347656 318.265625 437.59375 315.523438 C 439.617188 314.214844 441.902344 312.976562 443.339844 311.148438 C 445.367188 308.664062 448.175781 307.292969 450.589844 305.398438 C 453.660156 302.980469 454.902344 299.324219 456.863281 296.125 C 458.757812 292.988281 460.652344 289.789062 463.003906 286.976562 C 466.136719 283.058594 467.640625 278.550781 469.140625 273.457031 C 468.164062 274.175781 467.640625 274.566406 466.789062 275.15625 C 466.789062 274.046875 466.789062 273.195312 466.789062 272.347656 L 466.789062 272.28125 C 466.136719 267.578125 465.550781 262.941406 464.699219 258.238281 C 464.4375 256.671875 463.523438 255.234375 463.003906 253.730469 C 462.871094 253.402344 463.066406 252.882812 463.132812 252.488281 C 463.460938 252.75 463.980469 252.945312 464.113281 253.273438 C 464.832031 255.753906 465.550781 258.304688 466.203125 260.851562 C 466.59375 262.417969 467.183594 263.984375 467.246094 265.554688 C 467.3125 267.839844 466.988281 270.058594 466.789062 272.347656 C 466.789062 272.347656 466.789062 272.347656 466.789062 272.410156 C 468.097656 270.777344 469.402344 269.082031 470.644531 267.578125 C 470.054688 270.320312 469.597656 273.457031 468.75 276.527344 C 466.398438 285.476562 462.480469 293.773438 457.058594 301.347656 C 456.339844 302.394531 455.359375 303.242188 454.445312 304.222656 C 454.316406 304.417969 454.25 304.550781 454.117188 304.746094 C 453.660156 305.464844 453.269531 306.183594 452.746094 306.835938 C 437.265625 324.078125 417.996094 332.964844 394.808594 332.769531 C 358.882812 332.441406 328.574219 307.292969 321.324219 272.085938 C 319.167969 261.699219 319.363281 251.25 321.648438 240.863281 C 323.085938 234.199219 325.375 227.863281 328.507812 221.855469 C 329.160156 220.679688 330.207031 219.699219 331.25 218.390625 C 331.121094 219.109375 331.054688 219.503906 330.925781 219.894531 C 329.683594 223.09375 328.3125 226.296875 327.203125 229.5625 C 326.808594 230.671875 326.875 232.109375 327.203125 233.21875 C 328.050781 236.027344 326.808594 238.578125 326.222656 241.125 C 324.589844 248.570312 324.066406 256.015625 324.980469 263.59375 C 325.046875 264.050781 325.113281 264.507812 325.242188 265.03125 C 325.242188 261.894531 325.046875 258.695312 325.308594 255.558594 C 325.570312 252.292969 326.15625 249.027344 326.613281 245.761719 C 327.070312 242.625 327.921875 239.621094 329.421875 236.289062 C 329.816406 237.140625 330.011719 237.464844 330.074219 237.792969 C 330.335938 239.621094 330.859375 241.1875 332.425781 242.5625 C 333.144531 243.214844 333.34375 244.714844 333.277344 245.828125 C 333.210938 246.871094 333.144531 247.589844 333.800781 248.503906 C 334.648438 249.617188 335.171875 250.988281 335.824219 252.226562 C 336.542969 251.507812 337.128906 250.988281 337.71875 250.398438 C 339.480469 253.46875 338.304688 258.304688 335.367188 260.589844 C 333.800781 261.832031 333.40625 263.789062 334.582031 265.292969 C 332.949219 266.792969 333.34375 268.296875 334.257812 270.191406 C 335.757812 273.128906 336.738281 276.265625 338.175781 279.269531 C 338.894531 280.707031 339.875 282.078125 340.984375 283.253906 C 341.832031 284.105469 342.289062 284.824219 341.898438 286.0625 C 341.441406 287.5 341.050781 289.003906 340.855469 290.570312 C 341.636719 289.265625 342.355469 287.894531 343.335938 286.261719 C 344.511719 289.984375 345.6875 293.511719 346.796875 296.972656 C 348.167969 301.21875 349.28125 305.527344 351.632812 309.382812 C 352.414062 310.691406 353.984375 311.539062 354.503906 312.910156 C 355.550781 315.652344 357.835938 317.15625 359.730469 319.050781 C 360.1875 319.507812 360.777344 319.703125 361.429688 319.898438 C 360.582031 318.527344 361.234375 316.4375 359.273438 315.71875 C 359.144531 315.652344 359.011719 315.328125 358.949219 315.132812 C 358.75 314.019531 358.554688 312.910156 358.359375 311.800781 C 358.425781 311.800781 358.816406 311.929688 359.339844 312.0625 C 359.273438 311.605469 359.273438 311.210938 359.207031 310.691406 C 359.730469 310.753906 360.253906 310.820312 360.777344 310.753906 C 361.234375 310.691406 361.691406 310.429688 362.214844 310.296875 C 362.082031 309.90625 361.953125 309.449219 361.757812 309.054688 C 361.429688 308.46875 360.972656 307.878906 360.449219 307.164062 C 360.777344 307.292969 360.972656 307.292969 361.167969 307.421875 C 363.585938 308.730469 364.238281 308.992188 365.085938 306.050781 C 365.21875 305.726562 365.742188 305.464844 366.066406 305.203125 C 367.046875 304.484375 367.832031 303.765625 367.636719 302.261719 C 367.570312 301.742188 368.09375 300.761719 368.613281 300.566406 C 369.789062 300.109375 371.164062 299.78125 372.402344 299.847656 C 374.949219 299.910156 375.800781 299.652344 376.78125 297.363281 C 377.5 295.796875 378.019531 294.164062 378.347656 292.464844 C 378.738281 290.246094 380.894531 289.789062 382.203125 288.546875 C 382.984375 287.761719 384.09375 287.175781 384.617188 286.261719 C 385.53125 284.691406 384.945312 283.191406 383.3125 282.210938 C 382.984375 282.015625 382.460938 281.753906 382.332031 281.425781 C 381.027344 278.617188 378.019531 278.421875 375.867188 277.113281 C 375.472656 276.855469 374.820312 276.984375 374.558594 276.59375 C 373.773438 275.808594 373.054688 274.828125 372.140625 274.304688 C 370.769531 273.585938 369.988281 272.609375 369.398438 271.171875 C 368.875 269.863281 368.15625 268.625 367.308594 267.054688 C 372.597656 268.820312 377.628906 270.453125 383.246094 268.558594 C 380.109375 268.363281 377.238281 268.363281 374.492188 267.90625 C 371.292969 267.382812 368.484375 266.074219 365.742188 264.183594 C 361.300781 260.980469 358.621094 256.277344 354.898438 252.554688 C 350.457031 248.046875 346.472656 243.214844 344.121094 237.269531 C 343.726562 236.160156 343.335938 235.050781 342.945312 234.003906 C 343.140625 233.875 343.335938 233.808594 343.464844 233.675781 C 344.121094 234.59375 345.164062 235.507812 345.359375 236.550781 C 345.753906 238.316406 346.929688 237.988281 348.628906 238.25 C 346.277344 236.160156 345.558594 233.21875 342.683594 232.175781 C 342.421875 232.109375 342.226562 231.652344 342.160156 231.324219 C 341.703125 228.648438 341.3125 226.035156 340.855469 223.09375 C 342.09375 222.835938 343.140625 222.3125 344.121094 222.441406 C 345.101562 222.574219 346.078125 223.292969 346.796875 224.011719 C 347.125 224.335938 346.929688 225.316406 346.734375 225.96875 C 346.339844 227.339844 345.753906 228.648438 345.296875 229.953125 C 345.492188 230.085938 345.753906 230.214844 345.949219 230.347656 C 346.472656 229.757812 347.320312 229.234375 347.453125 228.582031 C 348.496094 223.160156 352.613281 221.789062 357.183594 220.941406 C 358.425781 220.679688 359.601562 220.222656 360.1875 218.785156 C 360.449219 218.195312 360.84375 217.609375 362.015625 217.804688 C 363.0625 217.933594 364.238281 216.757812 365.347656 216.238281 C 366.066406 215.910156 366.785156 215.648438 367.699219 215.582031 C 365.023438 221.855469 363.714844 228.191406 364.238281 234.917969 C 364.433594 227.734375 366.523438 221.203125 370.574219 215.386719 C 372.078125 217.933594 373.253906 220.742188 375.210938 222.835938 C 379.328125 227.210938 379.394531 232.042969 378.21875 237.335938 C 378.152344 237.53125 378.152344 237.660156 378.152344 238.25 C 380.242188 234.851562 380.765625 231.585938 380.4375 227.996094 C 382.527344 228.84375 384.488281 229.628906 386.382812 230.347656 C 380.175781 226.363281 375.210938 221.460938 372.925781 213.886719 C 375.082031 213.691406 376.976562 213.558594 378.933594 213.363281 C 378.933594 213.492188 379 213.625 379 213.753906 C 378.085938 214.015625 377.171875 214.277344 376.257812 214.539062 C 376.324219 214.667969 376.324219 214.800781 376.386719 214.996094 C 378.085938 214.867188 379.785156 214.667969 381.285156 214.539062 C 380.828125 213.753906 379.914062 212.839844 380.109375 212.316406 C 380.371094 211.535156 381.417969 211.011719 382.398438 210.097656 C 380.765625 210.097656 379.328125 210.097656 377.957031 210.097656 C 380.046875 209.246094 382.136719 208.269531 384.226562 209.378906 C 386.644531 210.683594 389.058594 209.640625 391.410156 209.640625 C 392.847656 209.640625 393.4375 207.875 392.261719 206.636719 C 391.214844 205.523438 391.214844 204.742188 392.066406 203.628906 C 392.457031 203.042969 392.457031 202.191406 392.71875 201.214844 C 391.933594 201.539062 391.410156 201.867188 390.824219 201.933594 C 390.105469 201.996094 389.453125 201.734375 388.734375 201.671875 C 388.929688 201.082031 389.191406 200.496094 389.453125 199.644531 C 388.601562 197.359375 386.96875 196.835938 384.75 198.535156 C 383.636719 199.382812 382.203125 199.644531 381.484375 201.214844 C 381.222656 201.800781 379.851562 202.257812 378.933594 202.257812 C 377.300781 202.257812 376.191406 203.042969 375.082031 204.085938 C 374.625 204.542969 373.90625 204.742188 373.1875 205.132812 C 372.535156 203.171875 373.773438 202.453125 374.429688 201.996094 C 374.363281 200.820312 374.230469 199.972656 374.296875 199.125 C 374.363281 198.40625 374.820312 197.75 374.949219 197.097656 C 375.34375 195.203125 376.648438 194.746094 378.347656 194.617188 C 380.4375 194.484375 382.59375 194.289062 384.945312 194.027344 C 384.226562 194.421875 383.769531 194.746094 383.050781 195.140625 C 384.160156 195.398438 385.011719 195.597656 386.121094 195.855469 C 385.988281 195.203125 385.859375 194.484375 385.792969 194.027344 C 387.621094 193.703125 389.386719 193.441406 391.148438 193.113281 C 391.085938 192.789062 391.085938 192.460938 391.019531 192.070312 C 389.582031 192.328125 388.144531 192.589844 386.578125 192.917969 C 387.035156 191.808594 387.425781 190.761719 387.882812 189.652344 C 386.96875 189.652344 385.925781 189.457031 385.269531 190.761719 C 385.074219 191.089844 384.421875 191.414062 384.03125 191.351562 C 382.460938 191.023438 380.960938 190.566406 379.066406 190.109375 C 379.652344 189.324219 380.046875 188.867188 380.4375 188.28125 C 383.179688 190.894531 384.160156 187.757812 386.054688 186.972656 C 384.945312 186.710938 384.097656 186.515625 383.117188 186.320312 C 383.636719 185.015625 384.292969 184.882812 385.335938 185.277344 C 386.707031 185.734375 388.082031 185.992188 389.648438 185.992188 C 388.277344 185.472656 386.839844 185.277344 387.363281 183.121094 C 388.539062 182.792969 389.84375 182.074219 391.148438 182.074219 C 393.042969 182.074219 395.003906 182.597656 396.898438 183.121094 C 396.570312 183.183594 396.179688 183.316406 395.65625 183.445312 C 396.507812 183.640625 396.703125 183.96875 397.027344 184.035156 Z M 349.804688 252.164062 C 350.128906 251.640625 350.457031 251.183594 350.914062 250.464844 C 352.023438 251.640625 352.9375 252.683594 353.917969 253.730469 C 353.851562 253.859375 353.722656 253.925781 353.65625 254.058594 C 352.414062 253.46875 351.238281 252.882812 349.804688 252.164062 Z M 365.085938 272.871094 C 365.9375 272.214844 366.851562 271.5625 367.832031 270.84375 C 368.15625 271.367188 368.355469 271.695312 368.484375 271.953125 C 367.375 272.410156 366.328125 272.871094 365.285156 273.261719 C 365.21875 273.128906 365.152344 273 365.085938 272.871094 Z M 365.085938 272.871094 " fill-opacity="1" fill-rule="nonzero"/><path fill="#0097b2" d="M 454.183594 304.875 C 451.570312 307.488281 448.957031 310.101562 446.34375 312.714844 C 446.148438 312.519531 446.019531 312.386719 445.824219 312.191406 C 448.304688 309.773438 450.789062 307.359375 453.269531 304.941406 C 453.597656 304.613281 454.117188 304.550781 454.511719 304.351562 C 454.445312 304.550781 454.316406 304.679688 454.183594 304.875 Z M 454.183594 304.875 " fill-opacity="1" fill-rule="nonzero"/><path fill="#0097b2" d="M 395.132812 198.863281 C 395.265625 199.253906 395.332031 199.710938 395.460938 200.167969 C 395.199219 200.167969 394.9375 200.300781 394.9375 200.234375 C 394.285156 199.382812 393.761719 198.46875 392.980469 197.6875 C 392.261719 197.03125 391.347656 196.574219 390.433594 195.988281 C 390.757812 195.921875 391.214844 195.792969 391.671875 195.792969 C 392.652344 195.726562 393.761719 195.855469 394.675781 195.597656 C 397.027344 195.007812 397.027344 194.941406 396.308594 192.589844 C 394.546875 191.9375 392.847656 191.351562 391.085938 190.695312 C 392.066406 188.671875 393.960938 188.738281 395.070312 189.128906 C 395.851562 189.457031 397.945312 188.738281 397.8125 190.371094 C 399.316406 191.613281 400.554688 192.65625 401.992188 193.832031 C 401.339844 194.355469 400.882812 194.679688 400.359375 195.074219 C 401.011719 195.855469 401.601562 196.640625 402.386719 197.554688 C 401.472656 197.816406 400.6875 198.078125 399.707031 198.339844 C 399.445312 197.816406 399.25 197.292969 398.859375 196.511719 C 398.402344 196.96875 398.007812 197.292969 397.8125 197.6875 C 397.550781 198.273438 397.421875 198.992188 397.226562 199.644531 C 396.636719 199.382812 395.984375 199.125 395.132812 198.863281 Z M 395.132812 198.863281 " fill-opacity="1" fill-rule="nonzero"/><path fill="#0097b2" d="M 391.738281 212.578125 C 391.410156 213.429688 391.085938 214.34375 390.757812 215.257812 C 389.648438 213.296875 387.6875 213.6875 386.1875 212.773438 C 387.949219 211.859375 389.582031 210.945312 391.28125 210.097656 C 390.039062 211.664062 390.105469 211.925781 391.738281 212.578125 Z M 391.738281 212.578125 " fill-opacity="1" fill-rule="nonzero"/><path fill="#0097b2" d="M 348.953125 241.320312 C 349.34375 240.46875 349.542969 239.882812 349.933594 238.96875 C 351.238281 239.882812 352.613281 240.796875 353.984375 241.710938 C 353.851562 241.90625 353.789062 242.039062 353.65625 242.234375 C 352.023438 241.972656 350.324219 241.582031 348.953125 241.320312 Z M 348.953125 241.320312 " fill-opacity="1" fill-rule="nonzero"/><path fill="#0097b2" d="M 399.511719 188.34375 C 397.746094 187.886719 395.984375 187.429688 394.351562 187.039062 C 393.960938 186.253906 396.050781 185.929688 394.417969 185.273438 C 396.113281 186.191406 397.8125 187.105469 399.578125 188.085938 C 399.511719 188.148438 399.511719 188.28125 399.511719 188.34375 Z M 399.511719 188.34375 " fill-opacity="1" fill-rule="nonzero"/><path fill="#0097b2" d="M 431.320312 213.035156 C 431.453125 215.714844 433.347656 217.085938 434.589844 219.175781 C 434.523438 219.4375 434.328125 219.960938 434.066406 220.546875 C 432.824219 220.484375 431.582031 220.417969 430.210938 220.351562 C 430.539062 219.175781 429.753906 217.804688 431.125 216.890625 C 431.191406 216.824219 430.863281 216.171875 430.667969 215.84375 C 430.277344 215.191406 429.625 214.667969 429.425781 213.949219 C 429.230469 213.429688 429.492188 212.773438 429.558594 212.121094 C 429.949219 212.382812 430.34375 212.644531 430.800781 212.90625 C 430.996094 212.972656 431.320312 213.035156 431.320312 213.035156 Z M 431.320312 213.035156 " fill-opacity="1" fill-rule="nonzero"/><path fill="#0097b2" d="M 421.457031 200.300781 C 422.960938 200.496094 424.527344 200.558594 425.964844 200.953125 C 426.421875 201.082031 426.816406 201.933594 426.878906 202.519531 C 426.945312 202.78125 426.226562 203.238281 425.769531 203.433594 C 423.417969 204.347656 422.4375 203.695312 422.046875 201.148438 C 421.980469 200.886719 421.65625 200.558594 421.457031 200.300781 Z M 421.457031 200.300781 " fill-opacity="1" fill-rule="nonzero"/><path fill="#0097b2" d="M 425.703125 217.804688 C 426.945312 217.347656 425.441406 215.582031 427.078125 215.386719 C 427.664062 215.324219 428.316406 215.324219 428.96875 215.324219 C 428.773438 216.238281 428.773438 217.28125 428.316406 217.933594 C 427.925781 218.390625 426.816406 218.195312 426.097656 218.328125 C 425.902344 218.132812 425.769531 218 425.703125 217.804688 Z M 425.703125 217.804688 " fill-opacity="1" fill-rule="nonzero"/></svg>